<mxfile host="app.diagrams.net" modified="2022-11-13T05:24:03.530Z" agent="5.0 (Windows NT 10.0; Win64; x64) AppleWebKit/537.36 (KHTML, like Gecko) Chrome/94.0.4606.81 Safari/537.36" etag="QcLENXAar4zZ4SomXoDX" version="20.5.3" type="github">
  <diagram id="H_eVUDyV6C6Xr4hcjINK" name="Page-1">
    <mxGraphModel dx="723" dy="1452" grid="1" gridSize="10" guides="1" tooltips="1" connect="1" arrows="1" fold="1" page="1" pageScale="1" pageWidth="850" pageHeight="1100" math="0" shadow="0">
      <root>
        <mxCell id="0" />
        <mxCell id="1" parent="0" />
        <mxCell id="2cMrdoMNG_7DLIbq31c8-2" value="" style="rounded=1;whiteSpace=wrap;html=1;dashed=1;movable=1;resizable=1;rotatable=1;deletable=1;editable=1;connectable=1;" parent="1" vertex="1">
          <mxGeometry x="300" y="120" width="350" height="380" as="geometry" />
        </mxCell>
        <mxCell id="2cMrdoMNG_7DLIbq31c8-9" value="" style="edgeStyle=orthogonalEdgeStyle;rounded=0;orthogonalLoop=1;jettySize=auto;html=1;" parent="1" source="2cMrdoMNG_7DLIbq31c8-7" target="2cMrdoMNG_7DLIbq31c8-8" edge="1">
          <mxGeometry relative="1" as="geometry" />
        </mxCell>
        <mxCell id="2cMrdoMNG_7DLIbq31c8-7" value="Распознование речи" style="rounded=1;whiteSpace=wrap;html=1;" parent="1" vertex="1">
          <mxGeometry x="380" y="130" width="190" height="30" as="geometry" />
        </mxCell>
        <mxCell id="vDhM9h5jJBPtBpZ5YefY-42" value="" style="edgeStyle=orthogonalEdgeStyle;rounded=0;orthogonalLoop=1;jettySize=auto;html=1;fontColor=#EA6B66;startArrow=none;startFill=0;endArrow=classic;endFill=1;" edge="1" parent="1" source="2cMrdoMNG_7DLIbq31c8-8" target="vDhM9h5jJBPtBpZ5YefY-41">
          <mxGeometry relative="1" as="geometry" />
        </mxCell>
        <mxCell id="2cMrdoMNG_7DLIbq31c8-8" value="Обработка текста запроса" style="whiteSpace=wrap;html=1;rounded=1;" parent="1" vertex="1">
          <mxGeometry x="380" y="180" width="190" height="30" as="geometry" />
        </mxCell>
        <mxCell id="2cMrdoMNG_7DLIbq31c8-32" value="" style="edgeStyle=orthogonalEdgeStyle;rounded=0;orthogonalLoop=1;jettySize=auto;html=1;fontSize=9;" parent="1" source="2cMrdoMNG_7DLIbq31c8-12" target="2cMrdoMNG_7DLIbq31c8-31" edge="1">
          <mxGeometry relative="1" as="geometry">
            <Array as="points">
              <mxPoint x="380" y="360" />
              <mxPoint x="475" y="360" />
            </Array>
          </mxGeometry>
        </mxCell>
        <mxCell id="2cMrdoMNG_7DLIbq31c8-12" value="Поиск релевантного ответа в БД" style="whiteSpace=wrap;html=1;rounded=1;" parent="1" vertex="1">
          <mxGeometry x="340" y="300" width="80" height="50" as="geometry" />
        </mxCell>
        <mxCell id="2cMrdoMNG_7DLIbq31c8-33" style="edgeStyle=orthogonalEdgeStyle;rounded=0;orthogonalLoop=1;jettySize=auto;html=1;fontSize=9;" parent="1" source="2cMrdoMNG_7DLIbq31c8-23" target="2cMrdoMNG_7DLIbq31c8-31" edge="1">
          <mxGeometry relative="1" as="geometry">
            <Array as="points">
              <mxPoint x="475" y="360" />
              <mxPoint x="475" y="360" />
            </Array>
          </mxGeometry>
        </mxCell>
        <mxCell id="2cMrdoMNG_7DLIbq31c8-23" value="Поиск ответа в сети Интернет" style="whiteSpace=wrap;html=1;rounded=1;" parent="1" vertex="1">
          <mxGeometry x="430" y="300" width="90" height="50" as="geometry" />
        </mxCell>
        <mxCell id="2cMrdoMNG_7DLIbq31c8-37" value="" style="edgeStyle=orthogonalEdgeStyle;rounded=0;orthogonalLoop=1;jettySize=auto;html=1;fontSize=9;" parent="1" source="2cMrdoMNG_7DLIbq31c8-31" target="2cMrdoMNG_7DLIbq31c8-34" edge="1">
          <mxGeometry relative="1" as="geometry" />
        </mxCell>
        <mxCell id="vDhM9h5jJBPtBpZ5YefY-51" style="edgeStyle=orthogonalEdgeStyle;rounded=0;orthogonalLoop=1;jettySize=auto;html=1;exitX=0.5;exitY=0;exitDx=0;exitDy=0;entryX=0.5;entryY=1;entryDx=0;entryDy=0;fontColor=#EA6B66;startArrow=none;startFill=0;endArrow=none;endFill=0;" edge="1" parent="1" source="2cMrdoMNG_7DLIbq31c8-31" target="vDhM9h5jJBPtBpZ5YefY-45">
          <mxGeometry relative="1" as="geometry" />
        </mxCell>
        <mxCell id="2cMrdoMNG_7DLIbq31c8-31" value="Синтез речи текста &lt;b&gt;ответа&lt;/b&gt;" style="rounded=1;whiteSpace=wrap;html=1;" parent="1" vertex="1">
          <mxGeometry x="380" y="380" width="190" height="40" as="geometry" />
        </mxCell>
        <mxCell id="2cMrdoMNG_7DLIbq31c8-34" value="Воспроизведение речи и визуальное сопровождение 3D анимации персонажа" style="rounded=1;whiteSpace=wrap;html=1;" parent="1" vertex="1">
          <mxGeometry x="380" y="440" width="190" height="50" as="geometry" />
        </mxCell>
        <mxCell id="2cMrdoMNG_7DLIbq31c8-45" style="edgeStyle=orthogonalEdgeStyle;rounded=0;orthogonalLoop=1;jettySize=auto;html=1;entryX=0.5;entryY=1;entryDx=0;entryDy=0;fontSize=9;startArrow=classic;startFill=1;endArrow=none;endFill=0;fontStyle=1" parent="1" source="2cMrdoMNG_7DLIbq31c8-38" target="2cMrdoMNG_7DLIbq31c8-2" edge="1">
          <mxGeometry relative="1" as="geometry">
            <Array as="points">
              <mxPoint x="240" y="20" />
              <mxPoint x="240" y="510" />
              <mxPoint x="475" y="510" />
            </Array>
            <mxPoint x="330" y="46" as="sourcePoint" />
          </mxGeometry>
        </mxCell>
        <mxCell id="2cMrdoMNG_7DLIbq31c8-46" value="&amp;nbsp;ОТВЕТ&amp;nbsp;" style="edgeLabel;html=1;align=center;verticalAlign=middle;resizable=0;points=[];fontSize=9;fontStyle=1" parent="2cMrdoMNG_7DLIbq31c8-45" vertex="1" connectable="0">
          <mxGeometry x="-0.8544" y="-1" relative="1" as="geometry">
            <mxPoint x="22" y="1" as="offset" />
          </mxGeometry>
        </mxCell>
        <mxCell id="2cMrdoMNG_7DLIbq31c8-38" value="" style="outlineConnect=0;dashed=0;verticalLabelPosition=bottom;verticalAlign=top;align=center;html=1;shape=mxgraph.aws3.user;fillColor=#D2D3D3;gradientColor=none;fontSize=9;" parent="1" vertex="1">
          <mxGeometry x="300" y="-23.65" width="70" height="93" as="geometry" />
        </mxCell>
        <mxCell id="vDhM9h5jJBPtBpZ5YefY-20" value="" style="group" vertex="1" connectable="0" parent="1">
          <mxGeometry x="400" y="-23.99752508030958" width="150" height="104.64752508030958" as="geometry" />
        </mxCell>
        <mxCell id="vDhM9h5jJBPtBpZ5YefY-11" value="модуль&lt;br&gt;обнаружения&lt;br&gt;лица" style="rounded=1;whiteSpace=wrap;html=1;dashed=1;" vertex="1" parent="vDhM9h5jJBPtBpZ5YefY-20">
          <mxGeometry y="11.84752508030958" width="150" height="70" as="geometry" />
        </mxCell>
        <mxCell id="vDhM9h5jJBPtBpZ5YefY-1" value="" style="shape=mxgraph.signs.tech.video_camera;html=1;pointerEvents=1;fillColor=#1ba1e2;strokeColor=#006EAF;verticalLabelPosition=bottom;verticalAlign=top;align=center;rotation=-179;fontColor=#ffffff;" vertex="1" parent="vDhM9h5jJBPtBpZ5YefY-20">
          <mxGeometry x="50" y="0.3475250803095804" width="40" height="20" as="geometry" />
        </mxCell>
        <mxCell id="vDhM9h5jJBPtBpZ5YefY-26" value="&lt;span style=&quot;font-size: 12px;&quot;&gt;&lt;b&gt;&lt;i&gt;лицо обнаружено&lt;/i&gt;&lt;/b&gt;&lt;/span&gt;" style="shape=hexagon;perimeter=hexagonPerimeter2;whiteSpace=wrap;html=1;fixedSize=1;fontSize=9;" vertex="1" parent="vDhM9h5jJBPtBpZ5YefY-20">
          <mxGeometry x="5" y="73.99752508030957" width="140" height="30.65" as="geometry" />
        </mxCell>
        <mxCell id="vDhM9h5jJBPtBpZ5YefY-22" value="" style="edgeStyle=orthogonalEdgeStyle;rounded=0;orthogonalLoop=1;jettySize=auto;html=1;endArrow=none;endFill=0;startArrow=classic;startFill=1;" edge="1" parent="1" source="vDhM9h5jJBPtBpZ5YefY-11" target="2cMrdoMNG_7DLIbq31c8-38">
          <mxGeometry relative="1" as="geometry" />
        </mxCell>
        <mxCell id="vDhM9h5jJBPtBpZ5YefY-32" value="" style="edgeStyle=orthogonalEdgeStyle;rounded=0;orthogonalLoop=1;jettySize=auto;html=1;startArrow=classic;startFill=1;endArrow=none;endFill=0;" edge="1" parent="1" source="vDhM9h5jJBPtBpZ5YefY-31" target="vDhM9h5jJBPtBpZ5YefY-26">
          <mxGeometry relative="1" as="geometry" />
        </mxCell>
        <mxCell id="vDhM9h5jJBPtBpZ5YefY-35" value="ДА" style="edgeLabel;html=1;align=center;verticalAlign=middle;resizable=0;points=[];" vertex="1" connectable="0" parent="vDhM9h5jJBPtBpZ5YefY-32">
          <mxGeometry x="0.2692" relative="1" as="geometry">
            <mxPoint x="2" y="-1" as="offset" />
          </mxGeometry>
        </mxCell>
        <mxCell id="vDhM9h5jJBPtBpZ5YefY-34" style="edgeStyle=orthogonalEdgeStyle;rounded=0;orthogonalLoop=1;jettySize=auto;html=1;exitX=0.5;exitY=1;exitDx=0;exitDy=0;entryX=0.5;entryY=0;entryDx=0;entryDy=0;startArrow=none;startFill=0;endArrow=classic;endFill=1;" edge="1" parent="1" source="vDhM9h5jJBPtBpZ5YefY-31" target="2cMrdoMNG_7DLIbq31c8-2">
          <mxGeometry relative="1" as="geometry" />
        </mxCell>
        <mxCell id="vDhM9h5jJBPtBpZ5YefY-31" value="" style="shape=image;html=1;verticalAlign=top;verticalLabelPosition=bottom;labelBackgroundColor=#ffffff;imageAspect=0;aspect=fixed;image=https://cdn4.iconfinder.com/data/icons/ionicons/512/icon-mic-a-128.png;fillColor=#333333;imageBackground=default;" vertex="1" parent="1">
          <mxGeometry x="600" y="51.33" width="28" height="28" as="geometry" />
        </mxCell>
        <mxCell id="vDhM9h5jJBPtBpZ5YefY-37" style="edgeStyle=orthogonalEdgeStyle;rounded=0;orthogonalLoop=1;jettySize=auto;html=1;exitX=0;exitY=0.5;exitDx=0;exitDy=0;entryX=0.5;entryY=1;entryDx=0;entryDy=0;entryPerimeter=0;startArrow=none;startFill=0;endArrow=classic;endFill=1;" edge="1" parent="1" source="vDhM9h5jJBPtBpZ5YefY-26" target="2cMrdoMNG_7DLIbq31c8-38">
          <mxGeometry relative="1" as="geometry" />
        </mxCell>
        <mxCell id="vDhM9h5jJBPtBpZ5YefY-38" value="НЕТ" style="edgeLabel;html=1;align=center;verticalAlign=middle;resizable=0;points=[];" vertex="1" connectable="0" parent="vDhM9h5jJBPtBpZ5YefY-37">
          <mxGeometry x="0.0206" y="2" relative="1" as="geometry">
            <mxPoint x="-11" y="-2" as="offset" />
          </mxGeometry>
        </mxCell>
        <mxCell id="vDhM9h5jJBPtBpZ5YefY-43" style="edgeStyle=orthogonalEdgeStyle;rounded=0;orthogonalLoop=1;jettySize=auto;html=1;exitX=0.5;exitY=1;exitDx=0;exitDy=0;entryX=0.5;entryY=0;entryDx=0;entryDy=0;fontColor=#EA6B66;startArrow=none;startFill=0;endArrow=classic;endFill=1;" edge="1" parent="1" source="vDhM9h5jJBPtBpZ5YefY-41" target="2cMrdoMNG_7DLIbq31c8-12">
          <mxGeometry relative="1" as="geometry">
            <Array as="points">
              <mxPoint x="475" y="290" />
              <mxPoint x="380" y="290" />
            </Array>
          </mxGeometry>
        </mxCell>
        <mxCell id="vDhM9h5jJBPtBpZ5YefY-44" style="edgeStyle=orthogonalEdgeStyle;rounded=0;orthogonalLoop=1;jettySize=auto;html=1;exitX=0.5;exitY=1;exitDx=0;exitDy=0;fontColor=#EA6B66;startArrow=none;startFill=0;endArrow=classic;endFill=1;" edge="1" parent="1" source="vDhM9h5jJBPtBpZ5YefY-41" target="2cMrdoMNG_7DLIbq31c8-23">
          <mxGeometry relative="1" as="geometry" />
        </mxCell>
        <mxCell id="vDhM9h5jJBPtBpZ5YefY-46" style="edgeStyle=orthogonalEdgeStyle;rounded=0;orthogonalLoop=1;jettySize=auto;html=1;exitX=0.5;exitY=1;exitDx=0;exitDy=0;entryX=0.5;entryY=0;entryDx=0;entryDy=0;fontColor=#EA6B66;startArrow=none;startFill=0;endArrow=classic;endFill=1;" edge="1" parent="1" source="vDhM9h5jJBPtBpZ5YefY-41" target="vDhM9h5jJBPtBpZ5YefY-45">
          <mxGeometry relative="1" as="geometry" />
        </mxCell>
        <mxCell id="vDhM9h5jJBPtBpZ5YefY-41" value="Модуль принятия интеллектуальных решений" style="whiteSpace=wrap;html=1;rounded=1;" vertex="1" parent="1">
          <mxGeometry x="360" y="230" width="230" height="40" as="geometry" />
        </mxCell>
        <mxCell id="vDhM9h5jJBPtBpZ5YefY-45" value="Выполнение команды" style="whiteSpace=wrap;html=1;rounded=1;" vertex="1" parent="1">
          <mxGeometry x="530" y="300" width="90" height="50" as="geometry" />
        </mxCell>
      </root>
    </mxGraphModel>
  </diagram>
</mxfile>
